<?xml version="1.0" encoding="UTF-8" standalone="no"?>
<!-- Created with Inkscape (http://www.inkscape.org/) -->

<svg
   xmlns:dc="http://purl.org/dc/elements/1.1/"
   xmlns:cc="http://creativecommons.org/ns#"
   xmlns:rdf="http://www.w3.org/1999/02/22-rdf-syntax-ns#"
   xmlns:svg="http://www.w3.org/2000/svg"
   xmlns="http://www.w3.org/2000/svg"
   xmlns:xlink="http://www.w3.org/1999/xlink"
   xmlns:sodipodi="http://sodipodi.sourceforge.net/DTD/sodipodi-0.dtd"
   xmlns:inkscape="http://www.inkscape.org/namespaces/inkscape"
   width="33"
   height="14"
   id="svg2"
   version="1.1"
   inkscape:version="0.48.0 r9654"
   sodipodi:docname="add-tool.svg"
   inkscape:export-filename="/home/aharvey/trees/yabife/yabife/static/images/add-tool.png"
   inkscape:export-xdpi="90"
   inkscape:export-ydpi="90">
  <defs
     id="defs4">
    <linearGradient
       id="linearGradient3755">
      <stop
         style="stop-color:#d3ddf0;stop-opacity:1;"
         offset="0"
         id="stop3757" />
      <stop
         style="stop-color:#b0c3de;stop-opacity:1;"
         offset="1"
         id="stop3759" />
    </linearGradient>
    <linearGradient
       inkscape:collect="always"
       xlink:href="#linearGradient3755"
       id="linearGradient3761"
       x1="14.041547"
       y1="1038.9324"
       x2="14.041547"
       y2="1051.887"
       gradientUnits="userSpaceOnUse"
       gradientTransform="matrix(1.1851852,0,0,1,-0.09259259,-1038.3622)" />
    <linearGradient
       inkscape:collect="always"
       xlink:href="#linearGradient3755"
       id="linearGradient3897"
       gradientUnits="userSpaceOnUse"
       gradientTransform="matrix(1.1851852,0,0,1,-0.09259259,0)"
       x1="14.041547"
       y1="1038.9324"
       x2="14.041547"
       y2="1051.887" />
    <filter
       id="filter3906"
       inkscape:label="Drop shadow"
       width="1.5"
       height="1.5"
       x="-0.25"
       y="-0.25"
       color-interpolation-filters="sRGB">
      <feGaussianBlur
         id="feGaussianBlur3908"
         in="SourceAlpha"
         stdDeviation="1"
         result="blur" />
      <feColorMatrix
         id="feColorMatrix3910"
         result="bluralpha"
         type="matrix"
         values="1 0 0 0 0 0 1 0 0 0 0 0 1 0 0 0 0 0 0.25 0 " />
      <feOffset
         id="feOffset3912"
         in="bluralpha"
         dx="1"
         dy="1"
         result="offsetBlur" />
      <feMerge
         id="feMerge3914">
        <feMergeNode
           id="feMergeNode3916"
           in="offsetBlur" />
        <feMergeNode
           id="feMergeNode3918"
           in="SourceGraphic" />
      </feMerge>
    </filter>
  </defs>
  <sodipodi:namedview
     id="base"
     pagecolor="#ffffff"
     bordercolor="#666666"
     borderopacity="1.0"
     inkscape:pageopacity="0.0"
     inkscape:pageshadow="2"
     inkscape:zoom="14.060606"
     inkscape:cx="16.5"
     inkscape:cy="7"
     inkscape:document-units="px"
     inkscape:current-layer="layer1"
     showgrid="false"
     inkscape:window-width="1280"
     inkscape:window-height="995"
     inkscape:window-x="1680"
     inkscape:window-y="0"
     inkscape:window-maximized="1"
     fit-margin-top="0"
     fit-margin-left="0"
     fit-margin-right="0"
     fit-margin-bottom="0" />
  <metadata
     id="metadata7">
    <rdf:RDF>
      <cc:Work
         rdf:about="">
        <dc:format>image/svg+xml</dc:format>
        <dc:type
           rdf:resource="http://purl.org/dc/dcmitype/StillImage" />
        <dc:title></dc:title>
      </cc:Work>
    </rdf:RDF>
  </metadata>
  <g
     inkscape:label="Layer 1"
     inkscape:groupmode="layer"
     id="layer1"
     transform="translate(0,-1038.3622)">
    <path
       inkscape:connector-curvature="0"
       style="fill:url(#linearGradient3897);fill-opacity:1;stroke:#bacae4;stroke-width:1;stroke-linecap:square;stroke-linejoin:round;stroke-miterlimit:4;stroke-opacity:1;stroke-dasharray:none"
       d="m 2.875,1038.8622 c -1.3131852,0 -2.375,0.892 -2.375,2 l 0,9 c 0,1.108 1.0618148,2 2.375,2 l 23.125,0 6.5,-6.5 -6.5,-6.5 -23.125,0 z"
       id="rect2985" />
    <g
       style="font-size:10px;font-style:normal;font-weight:normal;line-height:125%;letter-spacing:0px;word-spacing:0px;fill:#ffffff;fill-opacity:1;stroke:none;font-family:Bitstream Vera Sans"
       id="text3768">
      <path
         d="m 7.0805197,1045.2709 -1.1225586,-0.2471 c 0.1360671,-0.5765 0.3598625,-0.9901 0.6713867,-1.2407 0.3151027,-0.2542 0.7662742,-0.3814 1.3535156,-0.3814 0.5227835,0 0.9220344,0.073 1.1977539,0.2202 0.2757122,0.1469 0.4726521,0.3474 0.5908203,0.6016 0.1181597,0.2507 0.1772417,0.709 0.1772461,1.375 l -0.010742,1.7617 c -4.5e-6,0.4942 0.01969,0.863 0.059082,1.1065 0.039383,0.2399 0.1127883,0.4959 0.2202143,0.768 l -1.2246088,0 -0.1611329,-0.623 c -0.2112661,0.2506 -0.4386422,0.4386 -0.6821289,0.564 -0.2399112,0.1253 -0.4959331,0.1879 -0.7680664,0.1879 -0.454754,0 -0.8271495,-0.1521 -1.1171875,-0.4565 -0.2900395,-0.3079 -0.4350589,-0.7161 -0.4350586,-1.2246 -3e-7,-0.3223 0.059082,-0.6034 0.1772461,-0.8433 0.1181635,-0.2399 0.2846672,-0.4314 0.4995117,-0.5747 0.2148426,-0.1432 0.5585922,-0.2703 1.03125,-0.3813 0.5729141,-0.1325 0.972165,-0.256 1.197754,-0.3706 -3.3e-6,-0.3151 -0.023278,-0.521 -0.069824,-0.6177 -0.042972,-0.1003 -0.1253285,-0.1808 -0.2470703,-0.2417 -0.1181668,-0.064 -0.2864609,-0.097 -0.5048828,-0.097 -0.2220074,0 -0.3974629,0.05 -0.5263672,0.1504 -0.1253273,0.1003 -0.2273779,0.2883 -0.3061523,0.564 m 1.6542969,1.2246 c -0.1575552,0.064 -0.4028349,0.1396 -0.7358399,0.2256 -0.3831401,0.1002 -0.6337909,0.2112 -0.7519531,0.333 -0.1181657,0.1217 -0.1772477,0.2793 -0.1772461,0.4726 -1.6e-6,0.2185 0.064452,0.4029 0.1933594,0.5533 0.1324851,0.1468 0.2971984,0.2202 0.4941406,0.2202 0.1754533,0 0.3491185,-0.059 0.5209961,-0.1773 0.171872,-0.1217 0.290036,-0.2649 0.3544922,-0.4297 0.068031,-0.1647 0.1020475,-0.4637 0.1020508,-0.8969 l 0,-0.3008"
         style="font-size:11px;font-variant:normal;font-weight:bold;font-stretch:condensed;text-align:start;line-height:125%;letter-spacing:0.5px;writing-mode:lr-tb;text-anchor:start;fill:#ffffff;font-family:Arial Narrow;-inkscape-font-specification:Arial Narrow Bold Condensed"
         id="path3900"
         inkscape:connector-curvature="0" />
      <path
         d="m 15.975539,1049.2347 -1.154785,0 0,-0.8378 c -0.189782,0.3222 -0.413578,0.5639 -0.671387,0.725 -0.257815,0.1612 -0.522789,0.2417 -0.794922,0.2417 -0.522788,0 -0.97933,-0.2596 -1.369628,-0.7788 -0.38672,-0.5227 -0.580079,-1.2675 -0.580079,-2.2343 0,-0.974 0.189779,-1.708 0.569336,-2.2022 0.379556,-0.4977 0.846841,-0.7466 1.401856,-0.7466 0.26139,0 0.50488,0.066 0.730469,0.1988 0.229163,0.1325 0.438635,0.3312 0.628418,0.5962 l 0,-2.836 1.240722,0 0,7.874 m -3.303222,-2.9755 c -2e-6,0.5156 0.04297,0.9005 0.128906,1.1547 0.08952,0.2507 0.214842,0.4405 0.375976,0.5694 0.164712,0.1253 0.349119,0.188 0.553223,0.188 0.272132,0 0.50846,-0.1468 0.708984,-0.4405 0.200518,-0.2936 0.300778,-0.7358 0.300782,-1.3266 -4e-6,-0.6553 -0.09847,-1.1262 -0.295411,-1.4126 -0.193362,-0.2901 -0.440432,-0.4351 -0.74121,-0.4351 -0.286461,0 -0.529951,0.1415 -0.730469,0.4243 -0.200523,0.2829 -0.300783,0.709 -0.300781,1.2784"
         style="font-size:11px;font-variant:normal;font-weight:bold;font-stretch:condensed;text-align:start;line-height:125%;letter-spacing:0.5px;writing-mode:lr-tb;text-anchor:start;fill:#ffffff;font-family:Arial Narrow;-inkscape-font-specification:Arial Narrow Bold Condensed"
         id="path3902"
         inkscape:connector-curvature="0" />
      <path
         d="m 21.997024,1049.2347 -1.154786,0 0,-0.8378 c -0.189782,0.3222 -0.413577,0.5639 -0.671386,0.725 -0.257816,0.1612 -0.522789,0.2417 -0.794922,0.2417 -0.522788,0 -0.979331,-0.2596 -1.369629,-0.7788 -0.386719,-0.5227 -0.580079,-1.2675 -0.580078,-2.2343 -1e-6,-0.974 0.189778,-1.708 0.569336,-2.2022 0.379556,-0.4977 0.84684,-0.7466 1.401855,-0.7466 0.261391,0 0.50488,0.066 0.730469,0.1988 0.229163,0.1325 0.438636,0.3312 0.628418,0.5962 l 0,-2.836 1.240723,0 0,7.874 m -3.303223,-2.9755 c -2e-6,0.5156 0.04297,0.9005 0.128906,1.1547 0.08952,0.2507 0.214842,0.4405 0.375977,0.5694 0.164711,0.1253 0.349118,0.188 0.553222,0.188 0.272133,0 0.508461,-0.1468 0.708985,-0.4405 0.200517,-0.2936 0.300777,-0.7358 0.300781,-1.3266 -4e-6,-0.6553 -0.09847,-1.1262 -0.29541,-1.4126 -0.193363,-0.2901 -0.440433,-0.4351 -0.741211,-0.4351 -0.286461,0 -0.52995,0.1415 -0.730469,0.4243 -0.200522,0.2829 -0.300783,0.709 -0.300781,1.2784"
         style="font-size:11px;font-variant:normal;font-weight:bold;font-stretch:condensed;text-align:start;line-height:125%;letter-spacing:0.5px;writing-mode:lr-tb;text-anchor:start;fill:#ffffff;font-family:Arial Narrow;-inkscape-font-specification:Arial Narrow Bold Condensed"
         id="path3904"
         inkscape:connector-curvature="0" />
    </g>
  </g>
</svg>
